<?xml version="1.0" encoding="utf-8"?>
<!-- Generator: Adobe Illustrator 26.3.1, SVG Export Plug-In . SVG Version: 6.00 Build 0)  -->
<svg version="1.1" id="Lag_1" xmlns="http://www.w3.org/2000/svg" xmlns:xlink="http://www.w3.org/1999/xlink" x="0px" y="0px"
	 viewBox="0 0 1200 600" style="enable-background:new 0 0 1200 600;" xml:space="preserve">
<style type="text/css">
	.st0{fill:none;}
	.st1{fill:#F4F3F5;}
	.st2{fill:#EC6247;}
	.st3{fill:#E8C788;}
	.st4{fill:#F6F4F4;}
	.st5{fill:#FFFFFF;stroke:#020203;stroke-width:0.5;stroke-miterlimit:10;}
	.st6{font-family:'Phosphate-Inline';}
	.st7{font-size:14px;}
	.st8{fill:none;stroke:#EC6247;stroke-width:3;stroke-miterlimit:10;}
	.st9{fill:#020203;}
	.st10{fill:#FBBC59;stroke:#020203;stroke-width:0.5;stroke-miterlimit:10;}
	.st11{font-family:'SignPainter-HouseScript';}
	.st12{font-size:68.0683px;}
	.st13{fill:#835E45;}
	.st14{fill:#704A33;}
	.st15{fill:#A5856E;}
	.st16{fill:#FCE4C3;}
	.st17{fill:#F0803D;}
	.st18{fill:#E17E3B;}
	.st19{fill:#EFF0F2;}
	.st20{fill:#B2AEAA;}
	.st21{fill:#FFFFFF;}
	.st22{fill:#0062AD;}
	.st23{fill:#F9CF32;}
	.st24{fill:#F5DAB9;stroke:#020203;stroke-miterlimit:10;}
	.st25{fill:none;stroke:#020203;stroke-width:5;stroke-miterlimit:10;}
	.st26{fill:#020203;stroke:#020203;stroke-width:5;stroke-miterlimit:10;}
	.st27{fill:#F299A8;}
	.st28{fill:#050606;}
	.st29{fill:#ED6D3C;}
	.st30{fill:none;stroke:#020203;stroke-width:2;stroke-miterlimit:10;}
	.st31{fill:#ED6D3C;stroke:#020203;stroke-width:2;stroke-miterlimit:10;}
	.st32{fill:none;stroke:#020203;stroke-miterlimit:10;}
	.st33{fill:#0062AD;stroke:#020203;stroke-width:2;stroke-miterlimit:10;}
	.st34{fill:#3EAD53;stroke:#020203;stroke-miterlimit:10;}
	.st35{fill:#EC6247;stroke:#020203;stroke-miterlimit:10;}
	.st36{fill:#020203;stroke:#020203;stroke-miterlimit:10;}
	.st37{font-size:28.8267px;}
</style>
<path class="st0" d="M1110.9,121.5c0,0,15,6.3,20.7,6.3s11.7-0.3,12.5,1.9"/>
<path class="st1" d="M954,127.5c0,0,1.2,19.9-13.2,45.4c0,0-20.3,49.4-20.3,59s1.2,321.8,1.2,321.8s6,26.8,60.4,26.8
	c0,0,50.8,4.3,62.8-25.6V236.5c0,0-3.7-17.4-25.2-66c0,0-13.5-29-13.5-43C1006.2,127.5,954,127.5,954,127.5z"/>
<path class="st2" d="M921.7,264.4c0,0,57.8,28.2,121,0v226.2c0,0-48.2,34.9-118.7,0L921.7,264.4z"/>
<path class="st3" d="M922,295.7c0,0,50.4,32.5,120.7,0v165.1c0,0-57.1,29.8-119,0L922,295.7z"/>
<path class="st4" d="M925.2,300.8v157c0,0,55,29.1,114.9,0v-157C1040.1,300.8,978,327.8,925.2,300.8z"/>
<g>
	<g>
		<path class="st5" d="M928.9,442.5c0.6-0.1,1.5-0.2,2.5-0.1c1.3,0,2.3,0.4,2.8,1.2c0.5,0.7,0.8,1.7,0.8,2.9c0,1.2-0.3,2.2-0.9,2.7
			c-0.7,0.8-1.8,0.9-3,0.4c-0.4-0.1-0.7-0.3-1-0.5c0,1.5,0,3,0,4.5c-0.4-0.2-0.8-0.5-1.2-0.8C928.9,449.4,928.9,445.9,928.9,442.5z
			 M930.2,447.9c0.3,0.2,0.6,0.3,1,0.4c1.5,0.5,2.5-0.2,2.6-2.1c0.1-1.8-0.9-2.7-2.3-2.7c-0.6,0-1,0-1.2,0
			C930.2,445,930.2,446.5,930.2,447.9z"/>
		<path class="st5" d="M937,442.7c0.7-0.2,1.6-0.3,2.6-0.3c1.4,0,2.3,0.4,2.9,1.5c0.5,0.8,0.7,2,0.7,3.4c-0.1,2.3-1,3.7-2.1,4
			c0,0,0,0,0,0.1c0.8,0.6,1.2,2,1.3,3.9c0.2,2.5,0.4,4.3,0.5,5.1c-0.5-0.2-0.9-0.4-1.3-0.6c-0.1-0.6-0.3-2.1-0.5-4.3
			c-0.2-2.4-0.7-3.4-1.9-3.8c-0.4-0.1-0.8-0.2-1.2-0.4c-0.1,2.2-0.2,4.4-0.3,6.6c-0.4-0.2-0.8-0.4-1.3-0.7
			C936.6,452.4,936.8,447.6,937,442.7z M938.1,449.7c0.4,0.1,0.9,0.2,1.3,0.3c1.4,0.4,2.3-0.7,2.4-2.7c0.1-2.2-0.8-3.2-2.2-3.3
			c-0.6,0-1.1,0-1.3,0.1C938.2,446,938.1,447.9,938.1,449.7z"/>
		<path class="st5" d="M950,453.5c-1.3-0.3-2.7-0.5-4-0.8c-0.1,2.3-0.2,4.5-0.3,6.8c1.5,0.5,2.9,1,4.4,1.5c0,0.7-0.1,1.5-0.1,2.2
			c-1.9-0.7-3.8-1.4-5.7-2.2c0.3-6.1,0.6-12.2,0.9-18.3c1.8,0,3.7,0.1,5.5,0.1c0,0.7-0.1,1.5-0.1,2.2c-1.4-0.1-2.8-0.1-4.2-0.2
			c-0.1,2-0.2,4-0.3,6c1.3,0.2,2.7,0.5,4,0.7C950.1,452.1,950.1,452.8,950,453.5z"/>
		<path class="st5" d="M960.9,456c0-3.3,0.1-7.2,0.2-10.1c0,0,0,0,0,0c-0.5,2.7-1,5.6-1.6,8.7c-0.8,3.6-1.5,7.2-2.3,10.7
			c-0.3-0.1-0.7-0.2-1-0.3c-0.4-3.7-0.8-7.3-1.2-10.9c-0.4-3.2-0.7-6-0.8-8.5c0,0,0,0,0,0c-0.2,2.7-0.4,6.3-0.6,9.5
			c-0.2,3-0.5,6.1-0.7,9.1c-0.4-0.1-0.8-0.3-1.3-0.4c0.5-6.9,1.1-13.9,1.7-20.9c0.6,0,1.1,0,1.7,0c0.4,3.5,0.9,7.1,1.3,10.8
			c0.3,2.8,0.6,5.3,0.7,7.7c0,0,0,0,0,0c0.3-2.2,0.8-4.6,1.4-7.4c0.8-3.6,1.5-7.3,2.3-11c0.6,0,1.1,0,1.7,0
			c-0.1,7.9-0.1,15.8-0.2,23.8c-0.4-0.1-0.9-0.2-1.3-0.3C960.9,462.9,960.9,459.5,960.9,456z"/>
		<path class="st5" d="M966.3,442.9c-0.2,8.1-0.5,16.3-0.7,24.5c-0.5-0.1-0.9-0.2-1.4-0.3c0.2-8.1,0.5-16.1,0.7-24.2
			C965.5,442.9,965.9,442.9,966.3,442.9z"/>
		<path class="st5" d="M970,443c-0.1,4.9-0.2,9.9-0.3,14.8c-0.1,5.6,0.9,8.1,2.3,8.3c1.6,0.2,2.6-2.2,2.7-7.9
			c0.1-5.1,0.2-10.1,0.2-15.2c0.5,0,0.9,0,1.3,0c-0.1,5-0.1,10-0.2,15c-0.1,7.9-1.9,11-4.2,10.7c-2.2-0.3-3.8-3.5-3.6-11.2
			c0.1-4.9,0.2-9.8,0.4-14.6C969.1,443,969.5,443,970,443z"/>
		<path class="st5" d="M987.3,457.6c-0.1-3.6-0.2-8-0.2-11.2c0,0,0,0,0,0c-0.3,3-0.8,6.3-1.3,9.9c-0.6,4.2-1.2,8.4-1.9,12.7
			c-0.3,0-0.7,0-1,0c-0.6-4.1-1.1-8.3-1.7-12.4c-0.5-3.7-0.9-7-1.2-10.1c0,0,0,0,0,0c0,3.2-0.2,7.6-0.3,11.5
			c-0.1,3.7-0.2,7.4-0.4,11.1c-0.4,0-0.9,0-1.3-0.1c0.3-8.6,0.7-17.2,1-25.9c0.6,0,1.1,0,1.7,0c0.6,4.2,1.1,8.4,1.7,12.6
			c0.4,3.2,0.8,6.1,1,8.8c0,0,0,0,0,0c0.3-2.6,0.7-5.5,1.1-8.8c0.6-4.2,1.2-8.4,1.8-12.6c0.6,0,1.1,0,1.7,0c0.3,8.7,0.5,17.3,0.8,26
			c-0.5,0-0.9,0-1.4,0C987.5,465.2,987.4,461.4,987.3,457.6z"/>
		<path class="st5" d="M996.8,468.3c-1.3-8.3-2.6-16.8-3.9-25.3c0.5,0,1,0,1.4,0c0.6,4.2,1.2,8.4,1.8,12.5c0.5,3.4,1,6.4,1.3,9.4
			c0,0,0,0,0,0c0.2-3,0.6-6.2,1-9.5c0.5-4.2,1-8.3,1.5-12.4c0.5,0,1,0,1.4,0c-1,8.2-2,16.6-3.1,25.1
			C997.8,468.2,997.3,468.2,996.8,468.3z"/>
		<path class="st5" d="M1011.8,453.8c0.3,7.6-1.7,12.3-4.4,13c-2.8,0.7-4.9-4-5.1-11.4c-0.2-7.8,1.7-12.9,4.4-12.9
			C1009.6,442.5,1011.6,447.2,1011.8,453.8z M1003.8,455.2c0.2,5.2,1.5,9.6,3.7,9.1c2.2-0.5,3.2-5.1,3-10.2
			c-0.2-4.5-1.4-9.1-3.7-9.1C1004.6,445,1003.6,449.8,1003.8,455.2z"/>
		<path class="st5" d="M1013.1,443.1c0.8-0.3,1.8-0.5,2.8-0.5c1.9,0,3.3,0.9,4.3,2.4c1,1.5,1.6,3.7,1.8,6.7c0.2,3.1-0.2,5.7-1.1,7.9
			c-0.9,2.1-2.4,3.8-4.4,4.5c-1,0.3-1.8,0.5-2.4,0.5C1013.7,457.4,1013.4,450.3,1013.1,443.1z M1015.3,462c0.3,0,0.8-0.1,1.3-0.2
			c2.8-0.9,4.2-4.5,4-9.7c-0.2-4.5-1.7-7.4-4.5-7.3c-0.7,0-1.2,0.2-1.5,0.4C1014.8,450.8,1015,456.4,1015.3,462z"/>
		<path class="st5" d="M1023.3,442.7c0.4,0,0.9,0,1.3,0c0.1,2.9,0.3,5.7,0.4,8.5c0,0,0,0,0.1,0c0.2-0.7,0.5-1.4,0.7-2
			c0.9-2.4,1.9-4.5,2.8-6.6c0.6,0,1.1,0,1.6,0c-1.2,2.2-2.3,4.6-3.4,7.2c1.5,3,2.9,5.6,4.3,7.8c-0.5,0.3-1,0.5-1.5,0.8
			c-1.2-2-2.4-4.4-3.7-6.9c-0.3,0.7-0.6,1.4-0.9,2.2c0.1,2.2,0.2,4.5,0.3,6.8c-0.4,0.2-0.9,0.4-1.3,0.6
			C1023.8,454.9,1023.6,448.8,1023.3,442.7z"/>
		<path class="st5" d="M1033.5,451.9c-0.3,1.6-0.6,3.2-0.9,4.9c-0.4,0.2-0.9,0.5-1.3,0.7c0.9-5.6,1.9-10.6,2.9-15c0.5,0,1.1,0,1.6,0
			c1.3,4.1,2.4,7.6,3.5,10.4c-0.4,0.3-0.9,0.5-1.3,0.8c-0.3-1-0.7-2-1.1-3.1C1035.8,451,1034.7,451.5,1033.5,451.9z M1036.7,449.5
			c-0.3-1-0.7-2.1-1.1-3.3c-0.2-0.8-0.4-1.5-0.6-2.2c0,0,0,0,0,0c-0.1,0.8-0.3,1.6-0.4,2.4c-0.3,1.3-0.6,2.7-0.8,4.1
			C1034.7,450.1,1035.7,449.8,1036.7,449.5z"/>
	</g>
</g>
<g>
	<g>
		<rect x="940.3" y="285.5" class="st0" width="96.9" height="30.5"/>
		<text transform="matrix(1 0 0 1 940.2973 294.8565)" class="st6 st7">Stolichnaya</text>
	</g>
</g>
<path class="st8" d="M944,175.2l-8.2,16.4c0,0,0,8.2,21.1,24.6c0,0,30.4,7,50.4,0c0,0,15.3-15.3,18.8-23.5l-7.6-15.8
	c0,0-11.7,14.9-37.5,13.3C980.9,190.3,955.1,191,944,175.2z"/>
<g>
	<g>
		<path class="st9" d="M928.8,320.2c0,1.8,0,3.6,0,5.5c-0.3,0-0.5-0.1-0.8-0.1c0-1.8,0-3.5,0-5.3
			C928.2,320.2,928.5,320.2,928.8,320.2z"/>
		<path class="st9" d="M935.5,323.9c0-0.9-0.1-2.1-0.1-2.9c0,0,0,0,0,0c-0.2,0.8-0.5,1.6-0.8,2.5c-0.4,1-0.8,2-1.1,3
			c-0.2,0-0.4-0.1-0.6-0.1c-0.3-1-0.7-2.1-1-3.1c-0.3-0.9-0.5-1.7-0.7-2.4c0,0,0,0,0,0c0,0.7-0.1,1.7-0.1,2.6
			c-0.1,0.8-0.1,1.7-0.2,2.5c-0.3,0-0.5-0.1-0.8-0.1c0.2-1.9,0.3-3.8,0.5-5.7c0.3,0,0.7,0,1,0c0.4,1,0.7,2,1.1,3
			c0.3,0.8,0.5,1.5,0.6,2.2c0,0,0,0,0,0c0.2-0.6,0.4-1.3,0.7-2.1c0.4-1,0.8-2,1.2-3.1c0.3,0,0.7,0,1,0c0.1,2.3,0.2,4.5,0.3,6.8
			c-0.3,0-0.5-0.1-0.8-0.1C935.6,325.9,935.6,324.9,935.5,323.9z"/>
		<path class="st9" d="M937.8,320.3c0.4-0.1,0.9-0.1,1.6-0.1c0.8,0,1.4,0.2,1.8,0.6c0.3,0.4,0.5,0.9,0.5,1.6c0,0.7-0.2,1.2-0.5,1.6
			c-0.4,0.5-1.1,0.7-1.9,0.7c-0.2,0-0.5,0-0.7-0.1c0,1,0,1.9,0,2.9c-0.3,0-0.5-0.1-0.8-0.1C937.7,324.9,937.7,322.6,937.8,320.3z
			 M938.5,323.7c0.2,0.1,0.4,0.1,0.7,0.1c1,0.1,1.6-0.5,1.6-1.5c0-1-0.6-1.5-1.5-1.5c-0.4,0-0.6,0-0.8,0.1
			C938.6,321.9,938.6,322.8,938.5,323.7z"/>
		<path class="st9" d="M948.1,324.3c0,3-1.4,4.4-3,4.1c-1.7-0.2-2.8-2-2.8-4.4c0-2.5,1.3-4.1,3-4.1C947,320,948.2,321.8,948.1,324.3
			z M943.2,324.2c0,1.7,0.7,3.3,2,3.5c1.3,0.2,2-1.3,2.1-3.3c0-1.7-0.6-3.5-2-3.5C943.9,320.9,943.2,322.4,943.2,324.2z"/>
		<path class="st9" d="M949.2,320.2c0.4-0.1,1-0.2,1.6-0.2c0.9,0,1.4,0.2,1.8,0.7c0.3,0.4,0.5,1,0.5,1.8c0,1.2-0.5,2-1.2,2.3
			c0,0,0,0,0,0c0.5,0.3,0.8,0.9,0.9,1.9c0.2,1.3,0.3,2.2,0.5,2.6c-0.3,0-0.6-0.1-0.8-0.1c-0.1-0.3-0.2-1.1-0.4-2.2
			c-0.2-1.3-0.5-1.8-1.2-1.9c-0.3,0-0.5,0-0.8,0c0,1.3,0,2.6,0,3.8c-0.3,0-0.5-0.1-0.8-0.1C949.2,326,949.2,323.1,949.2,320.2z
			 M950,324.3c0.3,0,0.6,0,0.8,0c0.9,0,1.4-0.6,1.4-1.7c0-1.2-0.6-1.7-1.4-1.7c-0.4,0-0.7,0-0.8,0.1C950,322.1,950,323.2,950,324.3z
			"/>
		<path class="st9" d="M955.5,321.1c-0.6,0-1.3,0-1.9,0c0-0.3,0-0.7,0-1c1.6,0,3.1,0,4.7,0c0,0.4,0,0.7,0,1.1c-0.6,0-1.3,0-1.9,0
			c0,2.9,0,5.7-0.1,8.5c-0.3,0-0.5-0.1-0.8-0.1C955.4,326.8,955.4,323.9,955.5,321.1z"/>
		<path class="st9" d="M962.2,325.4c-0.8,0-1.6-0.1-2.5-0.1c0,1.2,0,2.4,0,3.6c0.9,0.1,1.8,0.1,2.8,0.2c0,0.4,0,0.7,0,1.1
			c-1.2-0.1-2.4-0.2-3.6-0.3c0-3.3,0-6.6,0.1-9.9c1.1,0,2.3,0,3.4,0c0,0.4,0,0.7,0,1.1c-0.9,0-1.7,0-2.6,0c0,1,0,2.1,0,3.1
			c0.8,0,1.6,0,2.5,0.1C962.2,324.7,962.2,325.1,962.2,325.4z"/>
		<path class="st9" d="M963.6,320.1c0.5-0.1,1.1-0.2,1.7-0.2c1.2,0,2,0.4,2.5,1.3c0.6,0.9,0.9,2.1,0.9,3.9c0,1.8-0.3,3.2-0.9,4.1
			c-0.6,1-1.6,1.4-2.8,1.3c-0.6,0-1.1-0.1-1.5-0.2C963.5,326.9,963.5,323.5,963.6,320.1z M964.3,329.3c0.2,0.1,0.5,0.1,0.8,0.1
			c1.8,0.1,2.7-1.5,2.7-4.4c0-2.5-0.8-4.1-2.5-4.1c-0.4,0-0.7,0.1-1,0.1C964.3,323.9,964.3,326.6,964.3,329.3z"/>
		<path class="st9" d="M971.8,320c0.4-0.1,0.9-0.2,1.6-0.2c0.8,0,1.4,0.3,1.8,0.9c0.3,0.5,0.5,1.3,0.5,2.3c0,1-0.2,1.8-0.5,2.4
			c-0.4,0.8-1.1,1.2-1.9,1.2c-0.2,0-0.5,0-0.7-0.1c0,1.5,0,2.9,0,4.4c-0.3,0-0.5,0-0.8,0C971.8,327.2,971.8,323.6,971.8,320z
			 M972.6,325.3c0.2,0.1,0.4,0.1,0.7,0.1c1,0,1.6-0.8,1.6-2.3c0-1.5-0.6-2.2-1.5-2.2c-0.4,0-0.6,0-0.8,0.1
			C972.6,322.5,972.6,323.9,972.6,325.3z"/>
		<path class="st9" d="M976.8,320c0.4-0.1,1-0.2,1.6-0.2c0.9,0,1.4,0.3,1.8,0.9c0.3,0.5,0.5,1.3,0.5,2.1c0,1.5-0.5,2.5-1.2,2.9
			c0,0,0,0,0,0c0.5,0.3,0.8,1.1,0.9,2.3c0.2,1.6,0.4,2.7,0.5,3.1c-0.3,0-0.6,0-0.8,0c-0.1-0.3-0.2-1.3-0.4-2.7
			c-0.2-1.6-0.5-2.1-1.3-2.2c-0.3,0-0.5,0-0.8,0c0,1.6,0,3.2,0,4.9c-0.3,0-0.5,0-0.8,0C976.8,327.4,976.8,323.7,976.8,320z
			 M977.6,325.1c0.3,0,0.6,0,0.8,0c0.9,0,1.4-0.9,1.4-2.1c0-1.5-0.6-2.1-1.5-2.1c-0.4,0-0.7,0.1-0.8,0.1
			C977.6,322.4,977.6,323.8,977.6,325.1z"/>
		<path class="st9" d="M985.1,325.9c-0.8,0-1.6,0-2.5,0c0,1.4,0,2.7,0,4.1c0.9,0,1.8,0,2.8,0c0,0.4,0,0.8,0,1.2c-1.2,0-2.4,0-3.6,0
			c0-3.8,0-7.6,0-11.4c1.1,0,2.3,0,3.4,0c0,0.4,0,0.8,0,1.2c-0.9,0-1.7,0-2.6,0c0,1.2,0,2.4,0,3.6c0.8,0,1.6,0,2.5,0
			C985.1,325,985.1,325.5,985.1,325.9z"/>
		<path class="st9" d="M991.8,326.2c0-1.6-0.1-3.5-0.1-5c0,0,0,0,0,0c-0.2,1.4-0.5,2.8-0.8,4.4c-0.4,1.9-0.7,3.7-1.1,5.6
			c-0.2,0-0.4,0-0.6,0c-0.3-1.8-0.7-3.6-1-5.5c-0.3-1.6-0.6-3.1-0.8-4.5c0,0,0,0,0,0c0,1.4-0.1,3.4-0.1,5.1c0,1.6-0.1,3.3-0.2,4.9
			c-0.3,0-0.5,0-0.8,0c0.1-3.8,0.3-7.7,0.4-11.5c0.3,0,0.7,0,1,0c0.4,1.9,0.7,3.7,1.1,5.6c0.3,1.4,0.5,2.7,0.7,3.9c0,0,0,0,0,0
			c0.2-1.2,0.4-2.4,0.7-3.9c0.4-1.9,0.7-3.7,1.1-5.6c0.3,0,0.7,0,1,0c0.2,3.8,0.3,7.7,0.4,11.5c-0.3,0-0.5,0-0.8,0
			C992,329.5,991.9,327.8,991.8,326.2z"/>
		<path class="st9" d="M994.8,319.7c0,3.8,0,7.7,0.1,11.5c-0.3,0-0.5,0-0.8,0c0-3.8,0-7.7,0-11.5
			C994.3,319.7,994.6,319.7,994.8,319.7z"/>
		<path class="st9" d="M997.1,319.6c0,2.3,0,4.5,0,6.8c0,2.6,0.7,3.6,1.5,3.6c0.9,0,1.5-1.2,1.5-3.7c0-2.2,0-4.5,0-6.7
			c0.3,0,0.5,0,0.8,0c0,2.2,0,4.4,0,6.6c0,3.5-1,5-2.4,5c-1.3,0-2.3-1.3-2.3-4.8c0-2.2,0-4.5,0-6.8
			C996.5,319.6,996.8,319.6,997.1,319.6z"/>
		<path class="st9" d="M1007.7,325.7c-0.1-1.5-0.1-3.4-0.1-4.8c0,0,0,0,0,0c-0.2,1.3-0.5,2.7-0.8,4.2c-0.4,1.8-0.7,3.6-1.1,5.5
			c-0.2,0-0.4,0-0.6,0c-0.4-1.8-0.7-3.5-1.1-5.3c-0.3-1.6-0.6-3-0.8-4.4c0,0,0,0,0,0c0,1.4,0,3.3-0.1,5c0,1.6-0.1,3.2-0.1,4.8
			c-0.3,0-0.5,0-0.8,0c0.1-3.8,0.2-7.5,0.4-11.3c0.3,0,0.7,0,1,0c0.4,1.8,0.8,3.6,1.1,5.4c0.3,1.4,0.5,2.6,0.7,3.7c0,0,0,0,0,0
			c0.2-1.1,0.4-2.4,0.6-3.8c0.4-1.8,0.7-3.6,1.1-5.4c0.3,0,0.7,0,1,0c0.2,3.7,0.3,7.3,0.5,11c-0.3,0-0.5,0-0.8,0.1
			C1007.9,328.9,1007.8,327.3,1007.7,325.7z"/>
		<path class="st9" d="M1013.4,330.1c-0.7-3.5-1.5-7-2.2-10.6c0.3,0,0.6,0,0.9,0c0.3,1.8,0.7,3.5,1,5.2c0.3,1.4,0.5,2.7,0.7,3.9
			c0,0,0,0,0,0c0.2-1.2,0.4-2.6,0.7-4c0.3-1.8,0.7-3.5,1-5.2c0.3,0,0.6,0,0.9,0c-0.7,3.5-1.4,7-2.2,10.6
			C1014,330,1013.7,330.1,1013.4,330.1z"/>
		<path class="st9" d="M1022.6,324.1c0,3.4-1.3,5.3-2.9,5.5c-1.7,0.2-2.9-1.8-2.9-5c0-3.3,1.2-5.5,2.9-5.5
			C1021.4,319.2,1022.5,321.2,1022.6,324.1z M1017.7,324.6c0,2.2,0.8,4.1,2.1,4c1.3-0.1,2-2.1,2-4.3c0-2-0.7-4-2.1-4
			C1018.3,320.3,1017.7,322.3,1017.7,324.6z"/>
		<path class="st9" d="M1023.6,319.5c0.5-0.1,1.1-0.2,1.7-0.2c1.2,0,2,0.4,2.6,1.1c0.6,0.7,0.9,1.8,0.9,3.2c0,1.5-0.3,2.7-0.9,3.6
			c-0.6,0.9-1.6,1.5-2.8,1.7c-0.6,0.1-1.1,0.1-1.5,0.1C1023.7,325.8,1023.6,322.6,1023.6,319.5z M1024.5,327.9c0.2,0,0.5,0,0.8,0
			c1.7-0.2,2.7-1.8,2.7-4.2c0-2.1-0.9-3.5-2.6-3.5c-0.4,0-0.7,0.1-1,0.1C1024.4,322.9,1024.5,325.4,1024.5,327.9z"/>
		<path class="st9" d="M1029.8,319.3c0.3,0,0.5,0,0.8,0c0,1.4,0,2.8,0,4.2c0,0,0,0,0,0c0.2-0.4,0.3-0.7,0.5-1
			c0.6-1.1,1.3-2.2,1.9-3.3c0.3,0,0.7,0,1,0c-0.8,1.2-1.5,2.4-2.3,3.7c0.8,1.6,1.7,3.1,2.5,4.6c-0.3,0-0.6,0.1-1,0.2
			c-0.7-1.3-1.4-2.6-2.1-3.9c-0.2,0.3-0.4,0.7-0.6,1c0,1.1,0,2.2,0,3.3c-0.3,0-0.5,0.1-0.8,0.1
			C1029.9,325.2,1029.9,322.2,1029.8,319.3z"/>
		<path class="st9" d="M1036,324.7c-0.2,0.9-0.4,1.7-0.6,2.6c-0.3,0-0.6,0.1-0.8,0.1c0.7-2.9,1.4-5.6,2.1-8.2c0.3,0,0.7,0,1,0
			c0.7,2.6,1.4,5,2.2,7.3c-0.3,0-0.6,0.1-0.9,0.2c-0.2-0.7-0.4-1.5-0.7-2.3C1037.5,324.5,1036.7,324.6,1036,324.7z M1038,323.7
			c-0.2-0.7-0.4-1.4-0.6-2.2c-0.1-0.5-0.2-1-0.3-1.4c0,0,0,0,0,0c-0.1,0.5-0.2,1-0.3,1.4c-0.2,0.8-0.4,1.5-0.6,2.3
			C1036.8,323.8,1037.4,323.7,1038,323.7z"/>
	</g>
</g>
<g>
	<g>
		<path class="st10" d="M929.6,393.8c1.2,0.7,3.2,1.8,5.1,1.4c0.8-0.1,1.4-0.4,1.8-0.8c0.5-0.6,0.3-1.1-0.1-1.3
			c-1.6-0.8-6.2-1.7-6.2-4.3c0-3.4,4.5-7,7.2-8.8c1.4-0.9,2.8-1.5,3.8-1c0.7,0.4,1.3,1.1,1.5,1.7c0.3,1-0.4,2.2-0.8,2.9
			c-0.8,1.1-1.6,2.7-2,3.5c-0.2,0.3-0.3,0.5-0.7,0.2c-0.6-0.4-0.9-1-0.3-2.4c0.6-1.4,2.8-4.2,2.1-4.6c-1-0.5-8.2,5.1-8.4,8.1
			c-0.1,1.7,3.7,2.4,5.3,3c1.1,0.4,1,1.7-0.3,3.2c-1.8,2.2-6.9,3.5-11-0.6c-0.3-0.3-0.2-0.5,0.1-0.6
			C927.6,393.2,928.8,393.3,929.6,393.8z"/>
		<path class="st10" d="M942.4,383.5c-0.3-0.3-0.1-0.5,0.3-0.6c0.8-0.2,1.6-0.6,2.4-0.9c0.9-1.8,1.7-3.3,2.2-4.1
			c0.3-0.4,0.6-0.5,0.7-0.3c0.3,0.6,0.3,1.5-0.4,3.1c1.1-0.5,1.6-0.2,1.8,0.1c0.2,0.2,0.1,0.5-0.3,0.6c-0.7,0.2-1.6,0.6-2.3,1
			c-1.1,2.2-2.8,5.3-3.9,7.8c-1,2.2-0.6,3.7,0.6,3.4c1.3-0.3,3-2.7,4.1-5.1c0.2-0.4,0.5-0.5,0.6-0.2c0.2,0.4,0,0.9-0.3,1.6
			c-0.4,0.9-2.3,3.9-4.7,4.5c-1.9,0.5-3.5-1-2.1-4.4c0.6-1.5,1.8-4,3.1-6.5C943.3,383.9,942.6,383.7,942.4,383.5z"/>
		<path class="st10" d="M959.7,387.5c1.4-0.5,3.4-3.5,4.5-6.1c0.2-0.5,0.5-0.6,0.6-0.3c0.2,0.4,0,1-0.3,1.9c-0.3,1-2.5,4.4-4.8,5.3
			c-2,0.8-3.1,0-2.4-3.2c0.1-0.4,0.2-0.8,0.3-1.2c-0.2,0.1-0.4,0.2-0.7,0.3c-0.3,0.2-0.7,0.3-1,0.4c-0.7,2.5-2.5,5.7-4.5,7
			c-1.1,0.7-2.6,1.2-3.7,0.2c-1.3-1.1-0.8-3.6,0.5-6.1c1.1-2.2,2.9-4.4,4.6-5.3c0.9-0.5,1.4-0.4,2,0c0.7,0.6,1.5,0.4,1.4,2.4
			c0,0.3-0.1,0.7-0.2,1.1c0.3-0.1,0.5-0.2,0.8-0.3s0.6-0.3,0.9-0.4c1.4-4.8,4.3-10.3,6.9-14.3c0.4-0.6,0.9-1,1.3-0.8
			c0.8,0.3,1,1.2,0.7,2.7c-0.4,1.8-1.6,4.5-2.8,6.3c-1.2,2-2.4,3.8-4,5.2C958.7,385.5,958.4,388,959.7,387.5z M952.2,382.5
			c-0.8,0.9-1.7,2.1-2.3,3.4c-1.2,2.5-1.6,5.1-0.9,5.4c0.8,0.3,2.6-1.3,4-4.3c0.4-0.9,0.7-1.7,1-2.5
			C953,384.3,952.2,383.5,952.2,382.5z M954.6,381.5c-0.2-0.8-0.7-0.4-0.9,0.5c-0.1,0.8,0.1,1.4,0.7,1.7
			C954.6,382.7,954.7,381.9,954.6,381.5z M963.5,376.2c1.3-2.4,2.5-5.5,2.1-5.6c-0.3,0-2.5,4.2-4.5,8.6c-0.2,0.5-0.4,1-0.6,1.5
			C961.8,379.2,962.9,377.3,963.5,376.2z"/>
		<path class="st10" d="M963.8,382.4c0.7-2.4,2.7-6.6,3.8-8.7c0.3-0.5,0.5-0.7,0.7-0.5c0.4,0.2,0.7,1.3,0,3.1
			c-0.6,1.6-1.8,4.1-2.5,5.8c-0.7,2-0.6,3,0.3,2.5c1.3-0.7,2.9-3.4,3.8-5.8c0.2-0.3,0.3-0.4,0.5-0.2c0.2,0.3,0.2,1-0.2,1.9
			c-0.9,2.2-2.7,4.3-4.4,5.1C963.5,386.5,963,385,963.8,382.4z M970.3,371.7c-0.4,0.6-1.2,1-1.6,0.5c-0.5-0.5-0.3-1.4,0.2-2.2
			c0.5-0.7,1.3-0.9,1.7-0.3C970.9,370.2,970.7,371.1,970.3,371.7z"/>
		<path class="st10" d="M978.5,369c0.6,0.9-0.6,3.1-1.1,5c-0.1,0.4-0.2,0.6-0.6,0.6c-0.7,0-1.1-0.6-0.7-2.1c0.3-1.2,1.2-2.9,0.8-3
			c-0.5-0.1-2.7,2.9-4,6.2c-1.6,4.1-1,6.1,0.7,5.3c2.5-1.2,4.6-4.7,5.8-7.1c0.2-0.3,0.4-0.5,0.5-0.2c0.1,0.2,0,1-0.5,2
			c-1.1,2.3-3.4,4.9-5.7,6.1c-3.7,1.9-5-0.9-3.1-5.6c1.9-4.6,4.8-7.8,6.3-7.7C977.7,368.3,978.1,368.5,978.5,369z"/>
		<path class="st10" d="M986.1,375.1c-2.5,1.3-3.1-0.2-2.2-3.2c1-3.4,3.5-7.9,3-7.9c-0.4,0-3.6,3.8-5.3,7.5
			c-1.1,2.3-2.1,4.9-2.8,7.1c-0.1,0.3-0.3,0.5-0.5,0.4c-0.5-0.3-0.7-1-0.1-3c1-3.4,7.1-17.1,9.5-21.6c0.3-0.5,0.6-0.6,0.7-0.4
			c0.4,0.6,0.3,2.2-0.8,4.7c-0.7,1.6-2.3,4.9-3.5,7.5c1.2-1.8,2.7-3.7,3.5-4c1-0.4,1.9,0.6,1.1,2.5c-0.7,1.7-2,4.6-2.7,6.5
			c-0.7,2.1-0.6,3.4,0.5,2.8c1.2-0.7,2.8-3.7,3.7-6.1c0.1-0.3,0.4-0.5,0.5-0.3c0.2,0.2,0.2,0.9-0.3,2
			C989.6,371.8,987.8,374.2,986.1,375.1z"/>
		<path class="st10" d="M998.8,356.2c1-0.3,1.9,0.7,1.1,2.7c-0.6,1.7-2,4.6-2.7,6.6c-0.8,2.1-0.6,3.5,0.5,2.9
			c1.2-0.6,2.6-3.4,3.8-6.1c0.2-0.4,0.3-0.5,0.5-0.3c0.2,0.2,0.2,1-0.3,2.1c-0.8,2.1-2.6,4.5-4.3,5.4c-2.5,1.2-3.1-0.4-2.2-3.5
			c1-3.5,3.5-8,3-8c-0.3,0-2,1.8-3.9,4.9c-1.7,2.9-3,6.4-4.3,9.9c-0.1,0.3-0.3,0.5-0.6,0.4c-0.6-0.3-0.8-1.2-0.3-2.9
			c0.6-2.2,2.8-7.6,4.7-11.4c0.2-0.4,0.4-0.5,0.6-0.3c0.4,0.5,0.4,1.6,0.1,2.8C995.8,359.2,997.8,356.5,998.8,356.2z"/>
		<path class="st10" d="M1011.6,350.4c0.3-0.5,0.5-0.7,0.7-0.5c0.4,0.4,0.7,1.7,0,3.6c-0.7,1.7-2.1,4.7-2.8,6.6
			c-0.7,2.1-0.8,3.4,0.2,3c1.2-0.5,2.8-3.3,3.8-5.9c0.2-0.3,0.3-0.5,0.5-0.2c0.1,0.2,0.1,1-0.3,2.1c-0.8,2-2.6,4.5-4.2,5
			c-1.6,0.5-2.4-0.1-2.4-1.6c-0.9,1.7-2.3,3.4-3.7,4c-2.7,1.2-3.3-2.4-0.8-7.3c2.4-4.8,4.7-7.3,6.2-7.9c1.3-0.5,1.8,0.2,1.8,1.5
			C1011,351.8,1011.3,351,1011.6,350.4z M1009.3,352.7c-0.9,0.3-3.1,3.3-4.7,6.8c-1.6,3.4-1.9,6.3-0.8,5.8c1.2-0.5,2.7-3.2,4.2-6.6
			C1009.9,354.5,1010.1,352.4,1009.3,352.7z"/>
		<path class="st10" d="M1018.7,361.5c-1.6,4.9-3.7,10.7-6.2,12.5c-0.6,0.4-1.1,0.6-1.7-0.1c-0.6-0.8-1.2-1.6-0.6-3.7
			c0.9-3.2,3.4-6,6.3-8.2c0.3-0.8,0.6-1.7,0.9-2.6c-0.9,1.3-2,2.5-3.2,2.9c-2.1,0.6-2.2-1.7-1.5-4.1c0.6-2.3,2.1-6,4-9.6
			c0.2-0.4,0.5-0.5,0.7-0.3c0.7,0.8,0.5,2.2-0.6,4.5c-1.1,2.2-1.7,3.8-2.3,5.5c-0.6,1.8-0.5,2.9,0.2,2.7c1.1-0.3,2.6-2.9,4.1-6.1
			c1.3-2.8,2.5-6.1,3.5-8.1c0.3-0.5,0.5-0.6,0.7-0.4c0.4,0.5,0.7,1.8-0.1,3.7c-0.9,2.1-2.7,6.6-3.9,10.1c2.3-2,4-4.4,5.2-6.4
			c0.2-0.3,0.4-0.4,0.5,0c0.1,0.3,0,1.1-0.5,2C1023.2,357.9,1021.1,359.6,1018.7,361.5z M1011.5,372.6c0.4,0.5,2.8-3.8,4.6-9.2
			C1012.2,367.1,1010.9,372,1011.5,372.6z"/>
		<path class="st10" d="M1034.6,344.1c0.3-0.5,0.5-0.6,0.7-0.3c0.4,0.6,0.7,2,0,3.8c-0.6,1.6-2.1,4.2-2.8,6.1
			c-0.7,2-0.8,3.4,0.2,3.2c1.2-0.2,2.8-2.6,3.8-5c0.2-0.3,0.3-0.4,0.5-0.1s0.1,1.1-0.3,2.1c-0.8,1.9-2.6,3.9-4.2,3.9
			c-1.6,0.1-2.4-0.9-2.4-2.4c-0.9,1.5-2.3,3-3.7,3.2c-2.7,0.6-3.3-3.4-0.8-8c2.4-4.5,4.7-6.4,6.2-6.6c1.3-0.2,1.8,0.9,1.8,2.2
			C1033.9,345.5,1034.2,344.7,1034.6,344.1z M1032.2,345.8c-0.9,0-3.1,2.6-4.7,5.9c-1.6,3.2-1.9,6.2-0.8,6c1.2-0.2,2.7-2.6,4.2-5.8
			C1032.8,347.9,1033.1,345.8,1032.2,345.8z"/>
		<path class="st10" d="M965.2,407.9c0.3-0.4,0.5-0.5,0.6-0.1c0.1,0.5-0.3,1.4-1.2,2.9c-1.5,2.4-4.1,6-7,11.1
			c-0.2,0.3-0.3,0.5-0.6,0.5c-1.1-0.1-1.6-0.6-1.5-2c0.1-1.9,0.9-6.1,1.9-9.3c0.1-0.3,0.3-0.5,0.6-0.4c1,0.4,1.1,1.4,0.7,3.2
			c-0.5,2.3-1.1,4-1.5,7.1C959.3,417,963.2,410.7,965.2,407.9z"/>
		<path class="st10" d="M973.3,409.9c-0.6,2.7-2.5,6.4-4.6,7.9c-1.1,0.8-2.5,1.2-3.7,0.2c-1.3-1.1-0.8-3.7,0.5-6.5
			c1.1-2.4,2.9-4.7,4.7-5.6c0.9-0.5,1.4-0.4,2,0.1c0.7,0.6,1.5,0.4,1.4,2.5c0,0.2,0,0.4-0.1,0.7c0.2-0.1,0.3-0.2,0.6-0.3
			c0.2-0.1,0.2,0.1,0.1,0.2C973.9,409.5,973.6,409.7,973.3,409.9z M970.8,410.2c-0.6-0.2-1.3-0.9-1.3-1.9c-0.8,1-1.6,2.3-2.3,3.6
			c-1.2,2.6-1.7,5.4-0.9,5.7c0.8,0.3,2.6-1.4,4-4.6c0.4-1,0.8-1.9,1-2.7C971.2,410.3,971,410.3,970.8,410.2z M971.8,407.2
			c-0.2-0.9-0.7-0.4-0.9,0.5c-0.2,0.8,0.2,1.5,0.7,1.7C971.8,408.5,971.9,407.7,971.8,407.2z"/>
		<path class="st10" d="M982.1,411.6c1.2-0.6,2.8-3.2,3.8-5.7c0.2-0.3,0.3-0.4,0.5-0.2c0.1,0.2,0.2,1-0.2,1.9
			c-0.8,2-2.6,4.3-4.2,4.9c-1.6,0.6-2.4,0-2.4-1.3c-0.9,1.6-2.3,3.2-3.6,3.8c-2.7,1.1-3.3-2.3-0.8-6.8c2.3-4.4,4.7-6.8,6.1-7.4
			c1.2-0.5,1.8,0.1,1.8,1.2c1.6-3.7,3.8-8.8,4.9-10.8c0.3-0.6,0.6-0.6,0.7-0.3c0.4,0.8,0.3,2.1-0.9,4.9c-1.4,3.2-4.2,9.4-5.7,13.1
			C981.1,410.9,981.1,412.1,982.1,411.6z M977,408.5c-1.6,3.2-1.9,5.8-0.8,5.4c1.2-0.5,2.8-2.8,4.1-6.1c1.7-4,2.1-6.1,1.3-5.7
			C980.8,402.5,978.6,405.3,977,408.5z"/>
		<path class="st10" d="M993.5,395c1.1-0.9,1.8-0.7,2.4,0.3c0.6,1,0.5,2.3-0.6,3.8c-1,1.4-2.2,2.8-4.1,4.2c0.1,2.4,0.9,3.8,2,3.5
			c1.2-0.4,2.8-3.3,3.7-5.6c0.2-0.4,0.4-0.6,0.6-0.3s0.1,1.1-0.3,2c-0.7,1.6-2,4-4.4,4.9c-2,0.8-3.8-0.2-3.7-4.3
			c0-0.5,0.1-0.6,0.6-1.1c3.6-2.8,5.6-6.2,5.1-6.9c-0.3-0.4-1.6,0.5-3.2,2.4c-2.2,2.7-3.5,5.9-5.8,12.3c-0.1,0.3-0.3,0.4-0.5,0.3
			c-0.4-0.3-0.6-1.2,0-3.2c0.8-3,5.7-15,8.3-19.9c0.3-0.5,0.6-0.6,0.7-0.4c0.4,0.7,0.4,2-0.8,4.7c-0.7,1.6-1.8,4.2-2.6,6
			C991.8,396.5,992.7,395.6,993.5,395z"/>
		<path class="st10" d="M1006.9,390.2c0.3-0.5,0.5-0.6,0.7-0.4c0.4,0.4,0.7,1.7,0,3.5c-0.7,1.6-2.1,4.5-2.8,6.4
			c-0.7,2-0.8,3.4,0.2,3c1.2-0.5,2.8-3.1,3.8-5.6c0.2-0.3,0.3-0.4,0.5-0.2s0.1,1-0.3,2c-0.8,2-2.6,4.3-4.2,4.7
			c-1.6,0.4-2.4-0.3-2.4-1.7c-0.9,1.6-2.3,3.2-3.7,3.8c-2.7,1-3.3-2.6-0.8-7.3c2.4-4.6,4.7-6.9,6.2-7.4c1.3-0.5,1.8,0.4,1.8,1.6
			C1006.2,391.6,1006.6,390.8,1006.9,390.2z M1004.5,392.3c-0.9,0.2-3.1,3.1-4.7,6.5c-1.6,3.3-1.9,6.1-0.8,5.7
			c1.2-0.4,2.7-3,4.2-6.2C1005.1,394.1,1005.4,392.1,1004.5,392.3z"/>
	</g>
</g>
<path class="st3" d="M953.3,27.3v100.6c0,0,4.9,4.7,28.9,4.7c0,0,11.7,0.3,24-4.4V27.3c0,0-2.5-4.8-24-4.8S953.3,27.3,953.3,27.3z"
	/>
<rect x="908.3" y="72.4" class="st0" width="142.8" height="250.7"/>
<text transform="matrix(1 0 0 1 964.5671 115.0361)" class="st2 st11 st12">S</text>
<g>
	<polygon class="st13" points="733.8,348.7 827.5,371.8 787.7,541.5 748,541.5 741.1,569.2 683.5,556.1 	"/>
	<polygon class="st14" points="791.4,362.9 748,541.5 787.7,541.5 827.5,371.8 	"/>
	<path class="st15" d="M703.7,552.3l20.4,5c6.4,1.6,12.9-2.4,14.5-8.8L780,380.1c1.6-6.4-2.4-12.9-8.8-14.5l-20.4-5
		c-6.4-1.6-12.9,2.4-14.5,8.8l-41.3,168.4C693.3,544.2,697.3,550.8,703.7,552.3z"/>
	<circle class="st16" cx="812.3" cy="383.8" r="4.2"/>
	<circle class="st16" cx="808.1" cy="401.6" r="4.2"/>
	<circle class="st16" cx="803.9" cy="419.4" r="4.2"/>
	<circle class="st16" cx="799.8" cy="437.2" r="4.2"/>
	<circle class="st16" cx="795.6" cy="455" r="4.2"/>
	<circle class="st16" cx="791.4" cy="472.3" r="4.2"/>
	<circle class="st16" cx="787.2" cy="489.6" r="4.2"/>
	<circle class="st16" cx="783" cy="506.9" r="4.2"/>
	<circle class="st16" cx="778.8" cy="524.2" r="4.2"/>
	<circle class="st16" cx="797.7" cy="389.6" r="4.2"/>
	<circle class="st16" cx="793.5" cy="405.8" r="4.2"/>
	<circle class="st16" cx="789.3" cy="423.6" r="4.2"/>
	<circle class="st16" cx="785.1" cy="441.4" r="4.2"/>
	<circle class="st16" cx="780.9" cy="459.2" r="4.2"/>
	<circle class="st16" cx="776.7" cy="477" r="4.2"/>
	<circle class="st16" cx="772.5" cy="495.4" r="4.2"/>
	<circle class="st16" cx="768.3" cy="513.7" r="4.2"/>
	<polygon class="st13" points="475.3,349 381.6,372 421.4,541.7 461,541.7 468,569.5 525.6,556.4 	"/>
	<polygon class="st14" points="417.7,363.1 461,541.7 421.4,541.7 381.6,372 	"/>
	<path class="st15" d="M505.4,552.6l-20.4,5c-6.4,1.6-12.9-2.4-14.5-8.8l-41.3-168.4c-1.6-6.4,2.4-12.9,8.8-14.5l20.4-5
		c6.4-1.6,12.9,2.4,14.5,8.8l41.3,168.4C515.8,544.5,511.8,551,505.4,552.6z"/>
	<circle class="st16" cx="396.6" cy="386.9" r="4.2"/>
	<circle class="st16" cx="401" cy="401.9" r="4.2"/>
	<circle class="st16" cx="405.1" cy="419.7" r="4.2"/>
	<circle class="st16" cx="409.3" cy="437.5" r="4.2"/>
	<circle class="st16" cx="413.5" cy="455.3" r="4.2"/>
	<circle class="st16" cx="417.7" cy="472.6" r="4.2"/>
	<circle class="st16" cx="421.9" cy="489.9" r="4.2"/>
	<circle class="st16" cx="426.1" cy="507.1" r="4.2"/>
	<circle class="st16" cx="430.3" cy="524.4" r="4.2"/>
	<circle class="st16" cx="411.4" cy="389.8" r="4.2"/>
	<circle class="st16" cx="415.6" cy="406.1" r="4.2"/>
	<circle class="st16" cx="419.8" cy="423.9" r="4.2"/>
	<circle class="st16" cx="424" cy="441.7" r="4.2"/>
	<circle class="st16" cx="428.2" cy="459.5" r="4.2"/>
	<circle class="st16" cx="432.4" cy="477.3" r="4.2"/>
	<circle class="st16" cx="436.6" cy="495.6" r="4.2"/>
	<circle class="st16" cx="440.8" cy="513.9" r="4.2"/>
	<polygon class="st17" points="474.3,349.5 486.8,342.2 503.2,345.8 516.2,336.4 531.9,339.5 545.5,332.7 561.2,336.4 573.8,330.1 
		589.5,334.3 604.4,330.1 618.3,334.3 634.4,330.1 648.7,335.9 664.4,332.7 678,339.8 693.7,336.4 707.3,344.8 722,342.7 
		733.3,349.5 685,555.3 677.5,557.4 669.1,550.6 659.2,554.3 651.3,548 641.9,552.2 631.9,545.4 623.5,550.1 614.6,544.8 
		605.7,549.6 596.3,544.8 586.3,550.6 576.9,545.9 569.1,551.7 559.1,548 551.3,553.8 541.3,551.1 533.4,557.4 523.5,554.3 	"/>
	<polygon class="st18" points="486.8,342.2 533.4,557.4 523.5,554.3 474.3,349.5 	"/>
	<polygon class="st18" points="503.2,345.8 541.3,551.1 551.3,553.8 516.2,336.4 	"/>
	<polygon class="st18" points="531.9,339.5 559.1,548 569.1,551.7 545.5,332.7 	"/>
	<polygon class="st18" points="561.2,336.4 576.9,545.9 586.3,550.6 573.8,330.1 	"/>
	<polygon class="st18" points="589.5,334.3 596.3,544.8 605.7,549.6 604.4,330.1 	"/>
	<polygon class="st18" points="618.3,334.3 614.6,544.8 623.5,550.1 634.4,330.1 	"/>
	<polygon class="st18" points="648.7,335.9 631.9,545.4 641.9,552.2 664.4,332.7 	"/>
	<polygon class="st18" points="678,339.8 651.3,548 659.2,554.3 693.7,336.4 	"/>
	<polygon class="st18" points="707.3,344.8 669.1,550.6 677.5,557.4 722,342.7 	"/>
	<polygon class="st14" points="483.5,340.6 531.9,559 535.3,559 486.8,340.6 	"/>
	<polygon class="st14" points="515.7,334.6 550.6,555.5 554.1,555.7 519.1,334.8 	"/>
	<polygon class="st14" points="572.4,328.1 584.8,551.4 588.2,552 575.7,328.6 	"/>
	<polygon class="st14" points="602.2,327.9 604.7,551.5 608.1,552.2 605.5,328.6 	"/>
	<polygon class="st14" points="634,328.4 622.2,551.8 625.6,552.7 637.3,329.3 	"/>
	<polygon class="st14" points="664.5,331.4 641,553.9 644.3,555 667.7,332.5 	"/>
	<polygon class="st14" points="693.9,334.3 657.8,555 661,556.3 697,335.5 	"/>
	<polygon class="st14" points="722.5,339.9 676.4,558.7 679.6,560.2 725.5,341.2 	"/>
	<polygon class="st14" points="544,330.1 565.5,552.7 568.9,553.2 547.3,330.5 	"/>
</g>
<g>
	<ellipse class="st19" cx="732.7" cy="300.2" rx="43.7" ry="6.8"/>
	<path class="st20" d="M689,300.2v2.9c0,0,4.3,5.9,43.7,5.9V307C732.7,307,694.3,307,689,300.2z"/>
	<rect x="733.1" y="34.2" class="st21" width="116.2" height="25.8"/>
	<rect x="733" y="85.9" class="st2" width="116.2" height="25.8"/>
	<polygon class="st22" points="733.1,60.1 733.1,85.9 849.2,85.9 849.3,60.1 	"/>
	<path class="st20" d="M725.7,34.1l2.9,265.6c0,0,3,1.5,6.5,0l-2-265.6C733.2,34.1,725.7,34.1,725.7,34.1z"/>
	<path class="st20" d="M776.4,300.2v3.2c0,0-5.3,5.7-43.7,5.7V307C732.7,307,773.5,306.5,776.4,300.2z"/>
	<path class="st19" d="M719.9,31.2v2.3c0,0,10.1,2.3,19.8,0v-2.3C739.7,31.2,719.9,31.2,719.9,31.2z"/>
</g>
<rect x="510.8" y="33.8" class="st22" width="116.1" height="38.2"/>
<rect x="510.8" y="72" class="st23" width="116.1" height="38.2"/>
<ellipse class="st19" cx="510.7" cy="300.2" rx="43.8" ry="6.8"/>
<path class="st20" d="M467,300.2v2.9c0,0,4.4,5.9,43.8,5.9V307C510.7,307,472.3,307,467,300.2z"/>
<path class="st20" d="M503.7,33.7l2.9,266.1c0,0,3,1.5,6.5,0l-2-266.1C511.2,33.7,503.7,33.7,503.7,33.7z"/>
<path class="st20" d="M554.5,300.2v3.2c0,0-5.3,5.7-43.8,5.7V307C510.7,307,551.6,306.5,554.5,300.2z"/>
<path class="st19" d="M494.8,29.9v2.8c0,0,12.2,2.8,23.8,0v-2.8C518.6,29.9,494.8,29.9,494.8,29.9z"/>
<path class="st23" d="M252.3,213.9c0,0-67.7,1-67.7,58.4c0,0,1.6,48.6-4.6,72.4c-6.2,23.8-23.3,66.1-12.9,120.4s11.4,62.5,11.4,62.5
	s-9.3,3.6-9.3,33.6c0,0,82.8,28.9,169.6,0c0,0,0.5-18.6-6.8-32c0,0,11.4-43.4,11.4-64.1c0,0,6.2-74.4-12.9-116.8
	c0,0-6.2-35.7-5.7-79.1C324.7,269.2,324.2,213.9,252.3,213.9z"/>
<circle class="st24" cx="254.1" cy="282.9" r="56.9"/>
<path class="st9" d="M231.1,231c0,0-0.1,8-12.5,52c0,0-11.6,28.1,3.5,46.9c0,0-29.5-15.7-23.7-57.4
	C198.3,272.5,204.4,242.1,231.1,231z"/>
<path class="st9" d="M231.1,231c0,0-2.8,23,33.4,33.4c0,0,51.1,19.1,39.5,46c0,0,22.6-36.9-12.3-70.1
	C291.7,240.2,266.4,215.2,231.1,231z"/>
<path class="st25" d="M241.9,276c-4.2-4.2-11.1-4.2-15.4,0"/>
<path class="st25" d="M284.1,277.6c-4.2-4.2-11.1-4.2-15.4,0"/>
<circle class="st26" cx="234" cy="286" r="5.4"/>
<circle class="st26" cx="276.6" cy="286.7" r="5.4"/>
<circle class="st27" cx="230.9" cy="307.8" r="11.9"/>
<circle class="st27" cx="278.3" cy="308.4" r="11.9"/>
<circle class="st28" cx="253.4" cy="299.5" r="1.5"/>
<circle class="st28" cx="258.6" cy="299.5" r="1.5"/>
<ellipse transform="matrix(0.9846 -0.1747 0.1747 0.9846 -51.059 49.4268)" class="st29" cx="255.2" cy="314.7" rx="2.8" ry="5.4"/>
<ellipse transform="matrix(0.2565 -0.9665 0.9665 0.2565 -113.3069 482.1706)" class="st29" cx="256.8" cy="314.7" rx="5.4" ry="2.8"/>
<path class="st29" d="M262.9,315.5h-13.2c-0.5,0-0.9-0.4-0.9-0.9v-0.3c0-0.5,0.4-0.9,0.9-0.9h13.2c0.5,0,0.9,0.4,0.9,0.9v0.3
	C263.8,315.1,263.4,315.5,262.9,315.5z"/>
<path class="st30" d="M183.6,319.6c0,0,31.7,20.2,70.5,20.2c0,0,42.5,1.5,72.7-20.2"/>
<path class="st30" d="M179.9,344.8c0,0,33,22.3,73.9,23.3c0,0,44.8,2.7,77.1-19.7"/>
<path class="st31" d="M217.5,446.8c0,0-3.1-39.3,18.6-42.4s34.6-4.1,37.7,11.9l2.6,4.6c0,0,23.3-3.6,22.2,13.4s5.7,12.9-3.6,23.8
	c0,0,3.6,11.9-12.4,5.7c0,0,17,14-0.5,18.1c0,0,0.2,10.9-17.5,0c0,0,0.9,22.2-15.6,8.3C249,490.2,218,471.6,217.5,446.8z"/>
<path class="st31" d="M217.3,443c0,0,2.7-8.1,8.4-8.6c0,0-2.4-25.5,20-30.4l9.1-0.6c0,0-25.3,7.8-14.8,39.6c0,0,2.8,6.7,17.2,12.9
	c0,0,13.6,6.6,7.3,26.1c0,0-0.1-4.6-10.9-5.1c0,0-10.3-6.6-10.3-14.8c0,0-10.3-0.5-10.3-6.6s-3-12.7-3-12.7L217.3,443z"/>
<path class="st30" d="M219.3,456.9c0,0,10.1,14.5,22.4,11.7"/>
<path class="st31" d="M238,422.1c0,0,31.1,0.4,31.1,3s-25.6,13,2.5,31.8c0,0,2.4,1.6-8.8,3.7l-5.5-5.1l-8.2-4.3
	C249,451.3,229.6,447.5,238,422.1z"/>
<path class="st30" d="M261.3,432.8c0,0,13.8,0.8,14.3,2.9c0,0-11.5,3.3-1.3,13c0,0-0.2,2-5.4,2"/>
<path class="st30" d="M271.6,456.9c0,0,15.6-7.5,7.4-18.9"/>
<path class="st30" d="M272.5,429.5c0,0,26.1,4.6,26,8.5s-10,24.1-26,23.6"/>
<path class="st32" d="M241.8,422.1c0,0,20.4-19,34.6-1.2"/>
<path class="st33" d="M221.4,458c0,0-16.1,16.8-26,8.5c-9.9-8.3-15.4-13.6-9.6-21.3l1-3c0,0-10.8-8.8-2.8-15.1s3.4-7.6,11.9-7.8
	c0,0,3.8-6.3,7.4,3.2c0,0-0.6-13,8.2-6.9c0,0,4.7-4.4,6.9,7.7c0,0,9.4-9.2,9.8,3.6C228.1,427.1,232.2,448,221.4,458z"/>
<path class="st33" d="M220,459.5c0,0-4.6,2-7.1-0.3c0,0-10.2,11-21.1,3.1l-3.8-3.8c0,0,13.4,8.1,23.1-9c0,0,1.8-3.8-1.2-12.6
	c0,0-2.5-8.6,8.5-13.4c0,0-2,1.8,2.1,6.8c0,0,1.2,7.1-2.4,10.3c0,0,3.9,4.8,1.2,7.1c-2.7,2.4-4.4,6.3-4.4,6.3L220,459.5z"/>
<path class="st30" d="M225.2,453.2c0,0,2.4-10.1-3.7-14.5"/>
<path class="st33" d="M202.5,458.7c0,0-12.1-13.9-10.9-14.9c1.1-1,15.8,6.1,13-13.6c0,0-0.2-1.7,5.1,2.4l-0.1,4.4l1.4,5.3
	C211,442.4,217,452.4,202.5,458.7z"/>
<path class="st30" d="M198,444.3c0,0-5.1-6.4-4.4-7.4c0,0,5.9,3.8,6.2-4.5c0,0,1-0.7,3,1.6"/>
<path class="st30" d="M204.6,430.2c0,0-9.5-3.9-11.2,4.2"/>
<path class="st30" d="M201.1,457c0,0-16.4-1.5-14.1-14.7"/>
<path class="st34" d="M254.1,339.8c0,0-19.5-3.1-27.6,40.3C226.6,380.1,277.4,383.7,254.1,339.8z"/>
<path class="st34" d="M257,339.8c0,0,19.5-3.1,27.6,40.3C284.6,380.1,233.8,383.8,257,339.8z"/>
<circle class="st35" cx="255.2" cy="343.9" r="4.1"/>
<path class="st36" d="M234.4,40.9c0,0-5.7-45.5-63.3-5c0,0-46.2,18.5-42.7,83.9c0,0-10,89.6,43.4,61.9c0,0,101.7,14.9,157.2,0.7
	c0,0,27.7,17.1,42.7-35.6s0-62.7,0-62.7s-4.3-41.9-44.8-52.6c0,0-28.2-18-41.1-12.5s-21.4,3.3-24.3,18.9l-0.7,3.6h-2.8
	c0,0,1.4-10,4.3-12.8l-7.1-3.6c0,0-5.7,7.1-6.4,13.5L234.4,40.9z"/>
<path class="st3" d="M249.3,90.5c0,0-3.6,18.5-12.8,24.9c0,0,4.3,1.4,4.3,8.5l4.3,5.7c0,0,10.3-1.4,16.2,0c0,0,0.2-4.3,4.4-5
	c0,0-1.4-3.6,2.8-8.5c0,0-11.8-19.9-10.2-25.6c0,0,15.2,5.7,17.3,17.8c0,0,2.1-1.4,4.3-1.4c0,0,5,6.4-2.8,14.2l4.4,0.3
	c0,0,2.7,2.6-8.7,10.4l4.3,2.8c0,0-3.6,6.4-19.2,2.8c0,0-3.6,3.6-12.1,0c0,0-12.8,2.1-17.8-5l4.3-1.4c0,0-8.5-5.7-8.5-13.5l3.6,0.7
	c0,0-4.3-9.2-2.1-14.2l5.7,2.1C230.8,106.2,235,92,249.3,90.5z"/>
<polygon class="st2" points="268.8,141.8 253.2,133.7 237.7,141.8 240.7,124.6 228.1,112.3 245.5,109.8 253.2,94.1 261,109.8 
	278.4,112.3 265.8,124.6 "/>
<path class="st30" d="M1106.1,246"/>
<path class="st33" d="M211.4,517.2c0,0-20.3-11.4-14.6-23.1c5.6-11.6,9.4-18.3,18.2-14.6l3.1,0.3c0,0,5.9-12.6,13.9-6.5
	s8.2,1.5,10.4,9.6c0,0,7,2.1-1.3,8c0,0,12.4-3.8,8.7,6.2c0,0,5.4,3.5-5.8,8.6c0,0,11.2,6.9-1.1,10.4
	C243,516.1,223.7,525.1,211.4,517.2z"/>
<path class="st33" d="M209.6,516.1c0,0-3-4-1.4-7c0,0-13.2-7.2-8.2-19.7l2.7-4.6c0,0-4.5,15,14.4,20.2c0,0,4.2,0.8,11.9-4.2
	c0,0,7.7-4.5,15.1,4.9c0,0-2.3-1.5-6.1,3.7c0,0-6.6,2.9-10.6,0.2c0,0-3.6,4.9-6.6,2.9c-3-2-7.1-2.7-7.1-2.7L209.6,516.1z"/>
<path class="st30" d="M216.9,519.6c0,0,10.4-0.2,13.1-7.1"/>
<path class="st33" d="M206,499c0,0,10.5-15.1,11.7-14.2c1.3,0.9-2.1,16.8,16.4,9.3c0,0,1.6-0.7-1.1,5.5l-4.3,1l-4.8,2.6
	C223.9,503.2,215.7,511.5,206,499z"/>
<path class="st30" d="M218.9,491.1c0,0,4.9-6.5,6.1-6.1c0,0-2.2,6.7,5.9,4.9c0,0,0.9,0.8-0.8,3.3"/>
<path class="st30" d="M234.2,494c0,0,1.4-10.1-6.8-9.8"/>
<path class="st30" d="M207.3,497.2c0,0-2.6-16.3,10.8-17.4"/>
<path class="st33" d="M280.3,523.1c0,0-12.6-19.5-2.2-27.2c10.4-7.7,16.8-11.8,22.9-4.4l2.6,1.7c0,0,11.1-8.4,15.3,0.8
	s6.6,5.1,4.8,13.4c0,0,5.2,5.2-4.9,6.4c0,0,12.8,2.5,4.8,9.5c0,0,3.1,5.6-9.1,4.9c0,0,6.7,11.3-5.8,8.7
	C308.8,536.8,287.5,535.8,280.3,523.1z"/>
<path class="st33" d="M279.2,521.3c0,0-0.8-5,2-6.8c0,0-8.3-12.5,2-21.3l4.5-2.8c0,0-11,11.1,3.3,24.6c0,0,3.3,2.7,12.5,1.8
	c0,0,8.9-0.4,11,11.4c0,0-1.3-2.3-7.1,0.4c0,0-7.2-0.5-9.5-4.8c0,0-5.5,2.6-7.2-0.5s-5.1-5.7-5.1-5.7L279.2,521.3z"/>
<path class="st30" d="M284.1,527.8c0,0,9.3,4.7,15-0.2"/>
<path class="st33" d="M284,504.5c0,0,16.3-8.5,17-7.1s-9.6,13.9,10.2,15.9c0,0,1.7,0.2-3.5,4.4l-4.3-1.1l-5.5,0.1
	C297.9,516.6,286.8,520.1,284,504.5z"/>
<path class="st30" d="M299.1,503.6c0,0,7.4-3.4,8.3-2.5c0,0-5,4.9,2.9,7.1c0,0,0.4,1.1-2.2,2.5"/>
<path class="st30" d="M311.2,513.2c0,0,6-8.3-1.5-11.9"/>
<path class="st30" d="M286,503.5c0,0,5.3-15.6,17.6-10.3"/>
<path class="st33" d="M304.8,421.4c0,0-23.1,2.5-25.3-10.2s-3.1-20.4,6.3-22.5l2.7-1.6c0,0-2.5-13.7,7.5-13.4
	c10.1,0.3,7.5-3.6,14.1,1.7c0,0,7-2.4,3.6,7.2c0,0,7.9-10.3,10.7,0c0,0,6.4-0.3,0.3,10.3c0,0,13.1-1,5.2,9
	C329.8,402,319.4,420.6,304.8,421.4z"/>
<path class="st33" d="M302.7,421.5c0,0-4.8-1.5-5.2-4.8c0,0-14.9,1.8-18.2-11.3l-0.5-5.3c0,0,5,14.8,23.5,8c0,0,3.9-1.8,7.2-10.4
	c0,0,3.6-8.1,15.1-4.8c0,0-2.7,0.1-2.8,6.5c0,0-3.7,6.2-8.5,6.4c0,0-0.1,6.1-3.7,6.2c-3.6,0.1-7.4,2-7.4,2L302.7,421.5z"/>
<path class="st30" d="M310.7,420.1c0,0,8.4-6.2,6.5-13.5"/>
<path class="st33" d="M289.8,409.7c0,0-0.3-18.4,1.2-18.4c1.5,0,8.1,14.9,18.7-2c0,0,0.9-1.5,2.4,5.1l-2.9,3.4l-2.4,5
	C306.8,402.7,305,414.2,289.8,409.7z"/>
<path class="st30" d="M295.7,395.8c0,0,0.2-8.2,1.5-8.5c0,0,2.1,6.7,7.7,0.6c0,0,1.2,0.1,1.3,3.1"/>
<path class="st30" d="M309.8,389.2c0,0-4.7-9.1-11.3-4"/>
<path class="st30" d="M289.8,407.5c0,0-11.6-11.7-1.3-20.4"/>
<rect x="938.3" y="190.4" class="st0" width="85.3" height="34.7"/>
<text transform="matrix(1 0 0 1 951.0974 208.4433)" class="st9 st11 st37">Russia</text>
</svg>
