<svg xmlns="http://www.w3.org/2000/svg" width="256" height="256" viewBox="0 0 100 100"><rect width="100" height="100" rx="20" fill="#000000"></rect><path fill="#fff" d="M47.97 71.67L26.72 71.67L26.72 69.17Q29.50 69.17 30.60 68.72Q31.70 68.26 31.70 67.18L31.70 67.18Q31.70 66.93 31.61 66.46Q31.53 65.98 31.22 65.05Q30.91 64.11 30.33 62.60Q29.75 61.08 28.71 58.76L28.71 58.76L15.14 58.76Q14.43 60.50 13.89 61.95L13.89 61.95Q13.44 63.20 13.04 64.34Q12.65 65.48 12.65 65.81L12.65 65.81Q12.65 67.39 14.00 68.18Q15.34 68.97 18.29 69.17L18.29 69.17L18.29 71.67L2.52 71.67L2.52 69.17Q3.60 68.97 4.45 68.66Q5.30 68.34 6.07 67.66Q6.84 66.98 7.54 65.79Q8.25 64.61 9.04 62.74L9.04 62.74L23.19 28.33L25.68 28.33L41.41 64.15Q42.03 65.56 42.82 66.50Q43.61 67.43 44.48 68.03Q45.35 68.64 46.24 68.88Q47.14 69.13 47.97 69.17L47.97 69.17L47.97 71.67ZM27.09 55.10L21.49 42.61L16.46 55.10L27.09 55.10ZM97.48 71.67L80.80 71.67L67.02 52.49Q66.77 52.57 66.15 52.57L66.15 52.57Q65.90 52.57 65.63 52.55Q65.36 52.53 65.15 52.53L65.15 52.53L65.15 63.65Q65.15 65.19 65.38 66.25Q65.61 67.31 66.25 67.95Q66.89 68.59 68.03 68.88Q69.17 69.17 71.04 69.17L71.04 69.17L71.04 71.67L49.50 71.67L49.50 69.17Q51.41 69.17 52.57 68.88Q53.74 68.59 54.34 67.91Q54.94 67.22 55.13 66.10Q55.31 64.98 55.31 63.36L55.31 63.36L55.31 36.72Q55.31 35.22 55.13 34.27Q54.94 33.32 54.34 32.76Q53.74 32.19 52.57 31.97Q51.41 31.74 49.50 31.74L49.50 31.74L49.50 29.25L67.10 29.25Q70.71 29.25 74.18 29.56Q77.64 29.87 80.34 30.99Q83.04 32.11 84.68 34.29Q86.32 36.47 86.32 40.16L86.32 40.16Q86.32 42.70 85.67 44.65Q85.03 46.60 83.91 48.01Q82.79 49.42 81.25 50.29Q79.72 51.16 77.93 51.54L77.93 51.54L87.10 62.41Q88.60 64.19 89.89 65.46Q91.17 66.73 92.38 67.54Q93.58 68.34 94.80 68.74Q96.03 69.13 97.48 69.17L97.48 69.17L97.48 71.67ZM76.02 40.79L76.02 40.79Q76.02 39.33 75.77 37.92Q75.52 36.51 74.72 35.41Q73.91 34.31 72.33 33.63Q70.75 32.94 68.10 32.94L68.10 32.94Q67.31 32.94 66.77 32.96Q66.23 32.98 65.85 33.02L65.85 33.02Q65.40 33.07 65.15 33.11L65.15 33.11L65.15 48.84Q65.61 48.92 66.62 48.98Q67.64 49.05 68.59 49.05L68.59 49.05Q70.00 49.05 71.35 48.46Q72.70 47.88 73.74 46.80Q74.78 45.73 75.40 44.19Q76.02 42.65 76.02 40.79Z"></path></svg>