<svg xmlns="http://www.w3.org/2000/svg" width="256" height="256" viewBox="0 0 100 100"><rect width="100" height="100" rx="20" fill="#231bba"></rect><path fill="#fff" d="M32.26 57.93L16.45 57.93L14.58 63.52Q14.33 64.31 14.06 65.38Q13.79 66.44 13.79 67.23L13.79 67.23Q13.79 67.87 14.04 68.34Q14.29 68.82 14.71 69.12Q15.12 69.42 15.64 69.58Q16.17 69.74 16.74 69.74L16.74 69.74L19.47 69.74L19.47 73.20L2.55 73.20L2.55 69.74L3.34 69.74Q4.20 69.74 4.92 69.55Q5.63 69.36 6.25 68.84Q6.87 68.31 7.42 67.39Q7.98 66.47 8.55 65.01L8.55 65.01L22.64 26.80L31.56 26.80L45.14 65.08Q45.62 66.44 46.14 67.34Q46.67 68.25 47.29 68.77Q47.91 69.30 48.60 69.52Q49.30 69.74 50.06 69.74L50.06 69.74L51.24 69.74L51.24 73.20L29.78 73.20L29.78 69.74L32.32 69.74Q32.80 69.74 33.31 69.60Q33.81 69.46 34.21 69.15Q34.61 68.85 34.86 68.38Q35.11 67.90 35.11 67.23L35.11 67.23Q35.11 66.44 34.92 65.71Q34.73 64.98 34.54 64.44L34.54 64.44L32.26 57.93ZM30.96 53.97L27.53 43.30Q27.18 42.19 26.82 40.97Q26.45 39.75 26.09 38.48Q25.72 37.21 25.39 35.96Q25.05 34.70 24.80 33.56L24.80 33.56Q24.51 34.54 24.13 35.72Q23.75 36.89 23.32 38.13Q22.90 39.37 22.47 40.61Q22.04 41.84 21.66 42.99L21.66 42.99L17.82 53.97L30.96 53.97ZM53.05 73.20L53.05 69.74L55.78 69.74Q56.44 69.74 57.05 69.61Q57.65 69.49 58.11 69.09Q58.57 68.69 58.84 67.92Q59.11 67.14 59.11 65.87L59.11 65.87L59.11 34.19Q59.11 32.89 58.84 32.12Q58.57 31.34 58.11 30.93Q57.65 30.51 57.05 30.37Q56.44 30.23 55.78 30.23L55.78 30.23L53.05 30.23L53.05 26.80L73.99 26.80Q83.20 26.80 87.50 29.88Q91.80 32.96 91.80 38.83L91.80 38.83Q91.80 41.40 91.04 43.40Q90.28 45.40 89.02 46.89Q87.77 48.38 86.18 49.41Q84.59 50.44 82.94 51.11L82.94 51.11L90.69 64.44Q91.51 65.84 92.29 66.84Q93.07 67.84 93.85 68.49Q94.62 69.14 95.45 69.44Q96.27 69.74 97.19 69.74L97.19 69.74L97.45 69.74L97.45 73.20L95.32 73.20Q92.40 73.20 90.23 72.98Q88.05 72.76 86.42 72.11Q84.79 71.46 83.59 70.31Q82.40 69.17 81.39 67.36L81.39 67.36L73.68 53.05L69.36 53.05L69.36 65.87Q69.36 67.14 69.63 67.92Q69.90 68.69 70.36 69.09Q70.82 69.49 71.42 69.61Q72.03 69.74 72.69 69.74L72.69 69.74L75.49 69.74L75.49 73.20L53.05 73.20ZM69.36 30.64L69.36 49.27L73.01 49.27Q75.26 49.27 76.77 48.67Q78.28 48.06 79.18 46.87Q80.09 45.68 80.48 43.89Q80.88 42.10 80.88 39.72L80.88 39.72Q80.88 37.24 80.44 35.53Q79.99 33.81 79.04 32.72Q78.09 31.62 76.56 31.13Q75.04 30.64 72.88 30.64L72.88 30.64L69.36 30.64Z"></path></svg>