<?xml version="1.0" encoding="utf-8"?>
<!-- Generator: Adobe Illustrator 26.3.1, SVG Export Plug-In . SVG Version: 6.00 Build 0)  -->
<svg version="1.1" id="Lag_1" xmlns="http://www.w3.org/2000/svg" xmlns:xlink="http://www.w3.org/1999/xlink" x="0px" y="0px"
	 viewBox="0 0 1200 600" style="enable-background:new 0 0 1200 600;" xml:space="preserve">
<style type="text/css">
	.st0{fill:#5FB232;}
	.st1{fill:#F9CF32;stroke:#020203;stroke-miterlimit:10;}
	.st2{fill:#0062AD;}
	.st3{fill:#FFFFFF;stroke:#020303;stroke-miterlimit:10;}
	.st4{fill:#EC6346;stroke:#020303;stroke-miterlimit:10;}
	.st5{fill:#2262AC;stroke:#020303;stroke-miterlimit:10;}
	.st6{fill:none;stroke:#020303;stroke-miterlimit:10;}
</style>
<rect x="974.1" y="110.4" class="st0" width="86.2" height="408"/>
<polygon class="st1" points="180,483.1 217.6,335.3 265,300 287.8,349.7 249.3,500.8 226.9,452 "/>
<polygon class="st1" points="373.3,483.2 335.7,335.4 288.3,300.2 265.5,349.9 304,500.9 326.4,452.2 "/>
<polygon class="st1" points="276.3,120.8 302.9,194.5 373.5,160.6 340.2,231.5 414.2,257.4 340.5,284 374.5,354.7 303.5,321.4 
	277.6,395.3 251,321.6 180.4,355.6 213.7,284.6 139.7,258.7 213.4,232.1 179.5,161.5 250.4,194.8 "/>
<polygon class="st1" points="223,131.7 276.2,189.3 328,130.4 325,208.8 403.2,203.8 345.7,257 404.5,308.9 326.2,305.8 331.1,384 
	277.9,326.5 226.1,385.3 229.1,307 150.9,311.9 208.4,258.7 149.6,206.9 228,209.9 "/>
<circle class="st2" cx="276.7" cy="258" r="76.3"/>
<rect x="503.8" y="181.6" class="st3" width="330.1" height="73.4"/>
<rect x="503.6" y="328.4" class="st4" width="330.1" height="73.4"/>
<polygon class="st5" points="503.8,255.1 503.8,328.4 833.7,328.4 834,255.1 "/>
<rect x="974.1" y="81.6" class="st6" width="86.2" height="436.8"/>
</svg>
