<?xml version="1.0" encoding="UTF-8"?><svg id="a" xmlns="http://www.w3.org/2000/svg" viewBox="0 0 339.13 231.03"><defs><style>.b{fill:#ec6247;}.c{fill:#e8c788;}.d{fill:#010101;stroke:#010101;stroke-miterlimit:10;}</style></defs><path class="d" d="M144.47,31.28s-7.68-61.41-85.4-6.72c0,0-62.37,24.95-57.58,113.23,0,0-13.43,120.91,58.54,83.49,0,0,137.22,20.15,212.07,.96,0,0,37.42,23.03,57.58-47.98,20.15-71.01,0-84.53,0-84.53,0,0-5.76-56.53-60.46-70.92,0,0-38.12-24.25-55.53-16.93-17.4,7.33-28.92,4.45-32.76,25.56l-.96,4.8h-3.84s1.92-13.43,5.76-17.27l-9.6-4.8s-7.68,9.6-8.64,18.23l-19.19,2.88Z"/><path class="c" d="M164.47,98.29s-4.8,24.95-17.27,33.59c0,0,5.76,1.92,5.76,11.52l5.76,7.68s13.92-1.92,21.84,0c0,0,.23-5.76,5.99-6.72,0,0-1.92-4.8,3.84-11.52,0,0-15.95-26.87-13.73-34.55,0,0,20.45,7.68,23.33,23.99,0,0,2.88-1.92,5.76-1.92,0,0,6.72,8.64-3.84,19.19l5.94,.34s3.65,3.49-11.7,14.05l5.76,3.84s-4.8,8.64-25.91,3.84c0,0-4.8,4.8-16.31,0,0,0-17.27,2.88-23.99-6.72l5.76-1.92s-11.52-7.68-11.52-18.23l4.8,.96s-5.76-12.47-2.88-19.19l7.68,2.88s5.76-19.19,24.95-21.11Z"/><polygon class="b" points="190.79 167.51 169.84 156.5 148.9 167.51 152.9 144.19 135.95 127.67 159.37 124.27 169.84 103.05 180.31 124.27 203.73 127.67 186.79 144.19 190.79 167.51"/></svg>